<svg xmlns="http://www.w3.org/2000/svg" style="display:none">
  <defs><style>.s{fill:none;stroke:currentColor;stroke-width:1.8;stroke-linecap:round;stroke-linejoin:round}</style></defs>
  <!-- Core specs -->
  <symbol id="gi-bed" viewBox="0 0 24 24"><path class="s" d="M3 18v-6a3 3 0 0 1 3-3h5a3 3 0 0 1 3 3v6M3 18h18M3 12h18"/></symbol>
  <symbol id="gi-bath" viewBox="0 0 24 24"><path class="s" d="M5 14v2a3 3 0 0 0 3 3h8a3 3 0 0 0 3-3v-2M7 9a2 2 0 0 1 2-2h1"/><path class="s" d="M7 14h10"/></symbol>
  <symbol id="gi-car" viewBox="0 0 24 24"><path class="s" d="M5 16l1-3 3-2h6l3 2 1 3"/><circle class="s" cx="8.5" cy="17" r="1.2"/><circle class="s" cx="15.5" cy="17" r="1.2"/><path class="s" d="M4 16h16"/></symbol>
  <symbol id="gi-level" viewBox="0 0 24 24"><path class="s" d="M6 16h12M12 7v9m0-9l-3 3m3-3l3 3"/></symbol>
  <symbol id="gi-pool" viewBox="0 0 24 24"><path class="s" d="M3 16c2 1.5 4 1.5 6 0 2 1.5 4 1.5 6 0 2 1.5 4 1.5 6 0"/></symbol>
  <symbol id="gi-ev" viewBox="0 0 24 24"><path class="s" d="M10 3l-2 7h4l-2 7 8-11h-4l2-3z"/></symbol>
  <symbol id="gi-solar" viewBox="0 0 24 24"><circle class="s" cx="12" cy="12" r="3"/><path class="s" d="M12 3v3M12 18v3M3 12h3M18 12h3M5 5l2 2M17 17l2 2M5 19l2-2M17 7l2-2"/></symbol>
  <symbol id="gi-land" viewBox="0 0 24 24"><rect class="s" x="4" y="6" width="16" height="12" rx="1.5"/><path class="s" d="M8 10l8 4"/></symbol>
  <symbol id="gi-build" viewBox="0 0 24 24"><rect class="s" x="6" y="4" width="12" height="16" rx="1.5"/><path class="s" d="M9 8h6M9 12h6M9 16h6"/></symbol>
  <!-- Labels -->
  <symbol id="gi-lbl-auction" viewBox="0 0 24 24"><path class="s" d="M7 7l5 5M12 7l-5 5M14 14l3 3"/></symbol>
  <symbol id="gi-lbl-sale" viewBox="0 0 24 24"><path class="s" d="M4 8h10l4 4-4 4H4z"/><circle class="s" cx="8" cy="12" r="1"/></symbol>
  <symbol id="gi-lbl-lease" viewBox="0 0 24 24"><path class="s" d="M4 8h12l4 4-4 4H4z"/></symbol>
  <symbol id="gi-lbl-agent" viewBox="0 0 24 24"><circle class="s" cx="8" cy="9" r="2.5"/><path class="s" d="M4 16a5 5 0 0 1 8 0M14 9h6M17 6v6"/></symbol>
  <symbol id="gi-lbl-offers" viewBox="0 0 24 24"><path class="s" d="M6 12l4 4 8-8"/><path class="s" d="M4 18h16"/></symbol>
  <symbol id="gi-lbl-eoi" viewBox="0 0 24 24"><path class="s" d="M4 7l8 6 8-6v10a2 2 0 0 1-2 2H6a2 2 0 0 1-2-2z"/></symbol>
  <symbol id="gi-lbl-control" viewBox="0 0 24 24"><path class="s" d="M12 4l7 4v5c0 4-3 6-7 7-4-1-7-3-7-7V8z"/></symbol>
  <symbol id="gi-lbl-leadagency" viewBox="0 0 24 24"><path class="s" d="M12 4l7 4v5c0 4-3 6-7 7-4-1-7-3-7-7V8z"/><path class="s" d="M9 12l2 2 4-4"/></symbol>
  <symbol id="gi-lbl-private" viewBox="0 0 24 24"><path class="s" d="M6 11V9a4 4 0 1 1 8 0v2"/><rect class="s" x="6" y="11" width="12" height="8" rx="2"/></symbol>
  <symbol id="gi-lbl-offmarket" viewBox="0 0 24 24"><path class="s" d="M2 2l20 20"/><path class="s" d="M3 12c2.5-5 15.5-5 18 0-2.5 5-15.5 5-18 0z"/></symbol>
</svg>
