<svg xmlns="http://www.w3.org/2000/svg" style="display:none">
  <!-- Bedrooms -->
  <symbol id="icon-bed" viewBox="0 0 24 24" fill="none" stroke="currentColor" stroke-width="1.75" stroke-linecap="round" stroke-linejoin="round">
    <path d="M4 18v-5a3 3 0 0 1 3-3h11a2 2 0 0 1 2 2v6"/><line x1="4" y1="18" x2="20" y2="18"/>
  </symbol>
  <!-- Cars -->
  <symbol id="icon-car" viewBox="0 0 24 24" fill="none" stroke="currentColor" stroke-width="1.75" stroke-linecap="round" stroke-linejoin="round">
    <path d="M5 16l1.5-4a2 2 0 0 1 1.9-1.4H15.6a2 2 0 0 1 1.9 1.4L19 16"/><path d="M7 16h10"/><circle cx="8.5" cy="17.5" r="1.5"/><circle cx="15.5" cy="17.5" r="1.5"/>
  </symbol>
  <!-- Bathrooms -->
  <symbol id="icon-bath" viewBox="0 0 24 24" fill="none" stroke="currentColor" stroke-width="1.75" stroke-linecap="round" stroke-linejoin="round">
    <rect x="4" y="12" width="16" height="5" rx="2.5"/><path d="M8 12V9"/><path d="M8 9c0-2 2-3 4-3"/>
  </symbol>
  <!-- Solar -->
  <symbol id="icon-solar" viewBox="0 0 24 24" fill="none" stroke="currentColor" stroke-width="1.75" stroke-linecap="round" stroke-linejoin="round">
    <circle cx="12" cy="12" r="4"/><path d="M12 2v3M12 19v3M2 12h3M19 12h3M4.9 4.9l2.1 2.1M16.9 16.9l2.1 2.1M4.9 19.1l2.1-2.1M16.9 7.1l2.1-2.1"/>
  </symbol>
  <!-- EV charger -->
  <symbol id="icon-plug" viewBox="0 0 24 24" fill="none" stroke="currentColor" stroke-width="1.75" stroke-linecap="round" stroke-linejoin="round">
    <path d="M7 2v5M17 2v5M6 10h12v5a6 6 0 1 1-12 0v-5z"/>
  </symbol>
  <!-- Land area -->
  <symbol id="icon-ruler" viewBox="0 0 24 24" fill="none" stroke="currentColor" stroke-width="1.75" stroke-linecap="round" stroke-linejoin="round">
    <rect x="3" y="6" width="18" height="12" rx="2"/><path d="M7 6v3M11 6v2M15 6v3M19 9h-3M19 13h-2M19 15h-3M5 9h3M5 13h2M5 15h3"/>
  </symbol>
  <!-- House area -->
  <symbol id="icon-home" viewBox="0 0 24 24" fill="none" stroke="currentColor" stroke-width="1.75" stroke-linecap="round" stroke-linejoin="round">
    <path d="M3 11l9-7 9 7"/><path d="M5 10v9h14v-9"/><path d="M9 19v-6h6v6"/>
  </symbol>
  <!-- Energy rating -->
  <symbol id="icon-bolt" viewBox="0 0 24 24" fill="none" stroke="currentColor" stroke-width="1.75" stroke-linecap="round" stroke-linejoin="round">
    <path d="M13 2L4 13h7l-2 9 9-11h-7l2-9z"/>
  </symbol>
  <!-- Map -->
  <symbol id="icon-map-pin" viewBox="0 0 24 24" fill="none" stroke="currentColor" stroke-width="1.75" stroke-linecap="round" stroke-linejoin="round">
    <path d="M12 21s-6-5-6-10a6 6 0 1 1 12 0c0 5-6 10-6 10z"/><circle cx="12" cy="11" r="2.75"/>
  </symbol>
  <!-- Property information -->
  <symbol id="icon-info" viewBox="0 0 24 24" fill="none" stroke="currentColor" stroke-width="1.75" stroke-linecap="round" stroke-linejoin="round">
    <circle cx="12" cy="12" r="9"/><line x1="12" y1="10" x2="12" y2="16"/><circle cx="12" cy="7" r="1"/>
  </symbol>
  <!-- Property data -->
  <symbol id="icon-bar-chart" viewBox="0 0 24 24" fill="none" stroke="currentColor" stroke-width="1.75" stroke-linecap="round" stroke-linejoin="round">
    <path d="M4 21V10M12 21V3M20 21v-6"/>
  </symbol>
</svg>
